<mxfile host="Electron" modified="2023-09-01T01:37:31.260Z" agent="Mozilla/5.0 (Windows NT 10.0; Win64; x64) AppleWebKit/537.36 (KHTML, like Gecko) draw.io/21.5.1 Chrome/112.0.5615.204 Electron/24.6.0 Safari/537.36" etag="bImQJG3vO5t0Y8nZZ2Nv" version="21.5.1" type="device">
  <diagram name="Page-1" id="QbLl1HPeMKgfFEHTOM9j">
    <mxGraphModel dx="2268" dy="828" grid="1" gridSize="10" guides="1" tooltips="1" connect="1" arrows="1" fold="1" page="1" pageScale="1" pageWidth="850" pageHeight="1100" math="0" shadow="0">
      <root>
        <mxCell id="0" />
        <mxCell id="1" parent="0" />
        <mxCell id="bXySMVa1CWxdAdgDymik-35" style="edgeStyle=orthogonalEdgeStyle;rounded=0;orthogonalLoop=1;jettySize=auto;html=1;entryX=0.5;entryY=0;entryDx=0;entryDy=0;" parent="1" source="bXySMVa1CWxdAdgDymik-6" target="bXySMVa1CWxdAdgDymik-28" edge="1">
          <mxGeometry relative="1" as="geometry">
            <Array as="points">
              <mxPoint x="-114.5" y="510.75" />
            </Array>
          </mxGeometry>
        </mxCell>
        <mxCell id="bXySMVa1CWxdAdgDymik-6" value="&lt;font face=&quot;Verdana&quot;&gt;Assets&lt;/font&gt;" style="sketch=0;pointerEvents=1;shadow=0;dashed=0;html=1;strokeColor=none;fillColor=#505050;labelPosition=center;verticalLabelPosition=bottom;verticalAlign=top;outlineConnect=0;align=center;shape=mxgraph.office.concepts.folder;" parent="1" vertex="1">
          <mxGeometry x="-199.5" y="488.75" width="50" height="45" as="geometry" />
        </mxCell>
        <mxCell id="bXySMVa1CWxdAdgDymik-60" style="edgeStyle=orthogonalEdgeStyle;rounded=0;orthogonalLoop=1;jettySize=auto;html=1;entryX=0.5;entryY=0;entryDx=0;entryDy=0;dashed=1;" parent="1" source="bXySMVa1CWxdAdgDymik-14" target="bXySMVa1CWxdAdgDymik-15" edge="1">
          <mxGeometry relative="1" as="geometry">
            <Array as="points">
              <mxPoint x="549" y="560" />
              <mxPoint x="379" y="560" />
            </Array>
          </mxGeometry>
        </mxCell>
        <mxCell id="bXySMVa1CWxdAdgDymik-61" style="edgeStyle=orthogonalEdgeStyle;rounded=0;orthogonalLoop=1;jettySize=auto;html=1;dashed=1;" parent="1" source="bXySMVa1CWxdAdgDymik-14" target="bXySMVa1CWxdAdgDymik-19" edge="1">
          <mxGeometry relative="1" as="geometry">
            <Array as="points">
              <mxPoint x="549" y="389" />
            </Array>
          </mxGeometry>
        </mxCell>
        <mxCell id="bXySMVa1CWxdAdgDymik-71" style="edgeStyle=orthogonalEdgeStyle;rounded=0;orthogonalLoop=1;jettySize=auto;html=1;dashed=1;" parent="1" source="bXySMVa1CWxdAdgDymik-14" target="bXySMVa1CWxdAdgDymik-16" edge="1">
          <mxGeometry relative="1" as="geometry" />
        </mxCell>
        <mxCell id="bXySMVa1CWxdAdgDymik-14" value="Display Manipulation" style="shape=image;html=1;verticalAlign=top;verticalLabelPosition=bottom;labelBackgroundColor=#ffffff;imageAspect=0;aspect=fixed;image=https://cdn1.iconfinder.com/data/icons/ionicons-fill-vol-2/512/logo-javascript-128.png" parent="1" vertex="1">
          <mxGeometry x="530" y="601.25" width="38" height="38" as="geometry" />
        </mxCell>
        <mxCell id="bXySMVa1CWxdAdgDymik-59" style="edgeStyle=orthogonalEdgeStyle;rounded=0;orthogonalLoop=1;jettySize=auto;html=1;entryX=0;entryY=0.5;entryDx=0;entryDy=0;dashed=1;" parent="1" source="bXySMVa1CWxdAdgDymik-15" target="bXySMVa1CWxdAdgDymik-14" edge="1">
          <mxGeometry relative="1" as="geometry" />
        </mxCell>
        <mxCell id="bXySMVa1CWxdAdgDymik-15" value="Event Handling" style="shape=image;html=1;verticalAlign=top;verticalLabelPosition=bottom;labelBackgroundColor=#ffffff;imageAspect=0;aspect=fixed;image=https://cdn1.iconfinder.com/data/icons/ionicons-fill-vol-2/512/logo-javascript-128.png" parent="1" vertex="1">
          <mxGeometry x="360" y="601.25" width="38" height="38" as="geometry" />
        </mxCell>
        <mxCell id="bXySMVa1CWxdAdgDymik-45" style="edgeStyle=orthogonalEdgeStyle;rounded=0;orthogonalLoop=1;jettySize=auto;html=1;dashed=1;" parent="1" source="bXySMVa1CWxdAdgDymik-16" target="bXySMVa1CWxdAdgDymik-18" edge="1">
          <mxGeometry relative="1" as="geometry" />
        </mxCell>
        <mxCell id="bXySMVa1CWxdAdgDymik-16" value="Content Initialization" style="shape=image;html=1;verticalAlign=top;verticalLabelPosition=bottom;labelBackgroundColor=#ffffff;imageAspect=0;aspect=fixed;image=https://cdn1.iconfinder.com/data/icons/ionicons-fill-vol-2/512/logo-javascript-128.png" parent="1" vertex="1">
          <mxGeometry x="740" y="625.8" width="38" height="38" as="geometry" />
        </mxCell>
        <mxCell id="bXySMVa1CWxdAdgDymik-64" style="edgeStyle=orthogonalEdgeStyle;rounded=0;orthogonalLoop=1;jettySize=auto;html=1;entryX=0;entryY=0.5;entryDx=0;entryDy=0;dashed=1;" parent="1" source="bXySMVa1CWxdAdgDymik-17" target="bXySMVa1CWxdAdgDymik-37" edge="1">
          <mxGeometry relative="1" as="geometry" />
        </mxCell>
        <mxCell id="bXySMVa1CWxdAdgDymik-17" value="Save System" style="shape=image;html=1;verticalAlign=top;verticalLabelPosition=bottom;labelBackgroundColor=#ffffff;imageAspect=0;aspect=fixed;image=https://cdn1.iconfinder.com/data/icons/ionicons-fill-vol-2/512/logo-javascript-128.png" parent="1" vertex="1">
          <mxGeometry x="20" y="601.25" width="38" height="38" as="geometry" />
        </mxCell>
        <mxCell id="bXySMVa1CWxdAdgDymik-18" value="Stat Manipulation" style="shape=image;html=1;verticalAlign=top;verticalLabelPosition=bottom;labelBackgroundColor=#ffffff;imageAspect=0;aspect=fixed;image=https://cdn1.iconfinder.com/data/icons/ionicons-fill-vol-2/512/logo-javascript-128.png" parent="1" vertex="1">
          <mxGeometry x="880" y="625.8" width="38" height="38" as="geometry" />
        </mxCell>
        <mxCell id="bXySMVa1CWxdAdgDymik-19" value="Terminal" style="shape=image;html=1;verticalAlign=top;verticalLabelPosition=bottom;labelBackgroundColor=#ffffff;imageAspect=0;aspect=fixed;image=https://cdn1.iconfinder.com/data/icons/ionicons-fill-vol-2/512/logo-javascript-128.png" parent="1" vertex="1">
          <mxGeometry x="580" y="370" width="38" height="38" as="geometry" />
        </mxCell>
        <mxCell id="bXySMVa1CWxdAdgDymik-38" style="edgeStyle=orthogonalEdgeStyle;rounded=0;orthogonalLoop=1;jettySize=auto;html=1;" parent="1" source="bXySMVa1CWxdAdgDymik-22" target="bXySMVa1CWxdAdgDymik-37" edge="1">
          <mxGeometry relative="1" as="geometry" />
        </mxCell>
        <mxCell id="bXySMVa1CWxdAdgDymik-22" value="Site Information" style="dashed=0;outlineConnect=0;html=1;align=center;labelPosition=center;verticalLabelPosition=bottom;verticalAlign=top;shape=mxgraph.weblogos.json" parent="1" vertex="1">
          <mxGeometry x="280" y="416.2" width="30" height="35.8" as="geometry" />
        </mxCell>
        <mxCell id="bXySMVa1CWxdAdgDymik-46" style="edgeStyle=orthogonalEdgeStyle;rounded=0;orthogonalLoop=1;jettySize=auto;html=1;" parent="1" source="bXySMVa1CWxdAdgDymik-24" target="bXySMVa1CWxdAdgDymik-18" edge="1">
          <mxGeometry relative="1" as="geometry" />
        </mxCell>
        <mxCell id="bXySMVa1CWxdAdgDymik-47" style="edgeStyle=orthogonalEdgeStyle;rounded=0;orthogonalLoop=1;jettySize=auto;html=1;" parent="1" source="bXySMVa1CWxdAdgDymik-24" target="bXySMVa1CWxdAdgDymik-16" edge="1">
          <mxGeometry relative="1" as="geometry" />
        </mxCell>
        <mxCell id="bXySMVa1CWxdAdgDymik-24" value="Current Language" style="dashed=0;outlineConnect=0;html=1;align=center;labelPosition=center;verticalLabelPosition=bottom;verticalAlign=top;shape=mxgraph.weblogos.json" parent="1" vertex="1">
          <mxGeometry x="810" y="460" width="30" height="35.8" as="geometry" />
        </mxCell>
        <mxCell id="bXySMVa1CWxdAdgDymik-49" style="edgeStyle=orthogonalEdgeStyle;rounded=0;orthogonalLoop=1;jettySize=auto;html=1;entryX=0.5;entryY=0;entryDx=0;entryDy=0;" parent="1" source="bXySMVa1CWxdAdgDymik-25" target="bXySMVa1CWxdAdgDymik-16" edge="1">
          <mxGeometry relative="1" as="geometry" />
        </mxCell>
        <mxCell id="bXySMVa1CWxdAdgDymik-25" value="Color Data" style="dashed=0;outlineConnect=0;html=1;align=center;labelPosition=center;verticalLabelPosition=bottom;verticalAlign=top;shape=mxgraph.weblogos.json" parent="1" vertex="1">
          <mxGeometry x="670" y="495.8" width="30" height="35.8" as="geometry" />
        </mxCell>
        <mxCell id="bXySMVa1CWxdAdgDymik-48" style="edgeStyle=orthogonalEdgeStyle;rounded=0;orthogonalLoop=1;jettySize=auto;html=1;" parent="1" source="bXySMVa1CWxdAdgDymik-26" target="bXySMVa1CWxdAdgDymik-18" edge="1">
          <mxGeometry relative="1" as="geometry" />
        </mxCell>
        <mxCell id="bXySMVa1CWxdAdgDymik-26" value="English (Stats)" style="dashed=0;outlineConnect=0;html=1;align=center;labelPosition=center;verticalLabelPosition=bottom;verticalAlign=top;shape=mxgraph.weblogos.json" parent="1" vertex="1">
          <mxGeometry x="970" y="545.8" width="30" height="35.8" as="geometry" />
        </mxCell>
        <mxCell id="bXySMVa1CWxdAdgDymik-62" style="edgeStyle=orthogonalEdgeStyle;rounded=0;orthogonalLoop=1;jettySize=auto;html=1;dashed=1;" parent="1" source="bXySMVa1CWxdAdgDymik-28" target="bXySMVa1CWxdAdgDymik-17" edge="1">
          <mxGeometry relative="1" as="geometry" />
        </mxCell>
        <mxCell id="bXySMVa1CWxdAdgDymik-28" value="Index" style="shape=image;html=1;verticalAlign=top;verticalLabelPosition=bottom;labelBackgroundColor=#ffffff;imageAspect=0;aspect=fixed;image=https://cdn1.iconfinder.com/data/icons/bootstrap-vol-3/16/filetype-html-128.png" parent="1" vertex="1">
          <mxGeometry x="-133.5" y="601.25" width="38" height="38" as="geometry" />
        </mxCell>
        <mxCell id="bXySMVa1CWxdAdgDymik-33" style="edgeStyle=orthogonalEdgeStyle;rounded=0;orthogonalLoop=1;jettySize=auto;html=1;" parent="1" target="bXySMVa1CWxdAdgDymik-28" edge="1">
          <mxGeometry relative="1" as="geometry">
            <mxPoint x="-109.5" y="598.75" as="targetPoint" />
            <mxPoint x="-82.5" y="480.26724137931046" as="sourcePoint" />
          </mxGeometry>
        </mxCell>
        <mxCell id="ljo64Ofl0aPz4C0_9lSt-1" value="" style="edgeStyle=orthogonalEdgeStyle;rounded=0;orthogonalLoop=1;jettySize=auto;html=1;" edge="1" parent="1" source="bXySMVa1CWxdAdgDymik-29" target="bXySMVa1CWxdAdgDymik-28">
          <mxGeometry relative="1" as="geometry" />
        </mxCell>
        <mxCell id="bXySMVa1CWxdAdgDymik-29" value="Style" style="shape=image;html=1;verticalAlign=top;verticalLabelPosition=bottom;labelBackgroundColor=#ffffff;imageAspect=0;aspect=fixed;image=https://cdn4.iconfinder.com/data/icons/48-bubbles/48/12.File-128.png" parent="1" vertex="1">
          <mxGeometry x="-80" y="460" width="43" height="43" as="geometry" />
        </mxCell>
        <mxCell id="bXySMVa1CWxdAdgDymik-32" style="edgeStyle=orthogonalEdgeStyle;rounded=0;orthogonalLoop=1;jettySize=auto;html=1;entryX=0;entryY=0.5;entryDx=0;entryDy=0;dashed=1;" parent="1" source="bXySMVa1CWxdAdgDymik-31" target="bXySMVa1CWxdAdgDymik-28" edge="1">
          <mxGeometry relative="1" as="geometry" />
        </mxCell>
        <mxCell id="bXySMVa1CWxdAdgDymik-31" value="&lt;font style=&quot;font-size: 8px;&quot; color=&quot;#e8e8e8&quot;&gt;Landing&lt;/font&gt;" style="ellipse;whiteSpace=wrap;html=1;aspect=fixed;fillColor=#080808;" parent="1" vertex="1">
          <mxGeometry x="-260" y="600" width="40.5" height="40.5" as="geometry" />
        </mxCell>
        <mxCell id="bXySMVa1CWxdAdgDymik-56" style="edgeStyle=orthogonalEdgeStyle;rounded=0;orthogonalLoop=1;jettySize=auto;html=1;entryX=0;entryY=0.5;entryDx=0;entryDy=0;dashed=1;" parent="1" source="bXySMVa1CWxdAdgDymik-37" target="bXySMVa1CWxdAdgDymik-15" edge="1">
          <mxGeometry relative="1" as="geometry" />
        </mxCell>
        <mxCell id="bXySMVa1CWxdAdgDymik-37" value="Dynamic Display Initialize" style="shape=image;html=1;verticalAlign=top;verticalLabelPosition=bottom;labelBackgroundColor=#ffffff;imageAspect=0;aspect=fixed;image=https://cdn1.iconfinder.com/data/icons/ionicons-fill-vol-2/512/logo-javascript-128.png" parent="1" vertex="1">
          <mxGeometry x="192" y="601.25" width="38" height="38" as="geometry" />
        </mxCell>
        <mxCell id="bXySMVa1CWxdAdgDymik-65" value="&lt;font style=&quot;font-size: 16px;&quot;&gt;Legend&lt;/font&gt;" style="rounded=0;whiteSpace=wrap;html=1;verticalAlign=top;" parent="1" vertex="1">
          <mxGeometry x="-450" y="220" width="171" height="320" as="geometry" />
        </mxCell>
        <mxCell id="bXySMVa1CWxdAdgDymik-66" value="" style="shape=image;html=1;verticalAlign=top;verticalLabelPosition=bottom;labelBackgroundColor=#ffffff;imageAspect=0;aspect=fixed;image=https://cdn4.iconfinder.com/data/icons/48-bubbles/48/12.File-128.png" parent="1" vertex="1">
          <mxGeometry x="-440" y="290" width="30" height="30" as="geometry" />
        </mxCell>
        <mxCell id="bXySMVa1CWxdAdgDymik-67" value="" style="sketch=0;pointerEvents=1;shadow=0;dashed=0;html=1;strokeColor=none;fillColor=#505050;labelPosition=center;verticalLabelPosition=bottom;verticalAlign=top;outlineConnect=0;align=center;shape=mxgraph.office.concepts.folder;" parent="1" vertex="1">
          <mxGeometry x="-440" y="330" width="30" height="22.5" as="geometry" />
        </mxCell>
        <mxCell id="bXySMVa1CWxdAdgDymik-68" value="" style="ellipse;whiteSpace=wrap;html=1;aspect=fixed;fillColor=#080808;" parent="1" vertex="1">
          <mxGeometry x="-435" y="260" width="20" height="20" as="geometry" />
        </mxCell>
        <mxCell id="bXySMVa1CWxdAdgDymik-69" value="" style="dashed=0;outlineConnect=0;html=1;align=center;labelPosition=center;verticalLabelPosition=bottom;verticalAlign=top;shape=mxgraph.weblogos.json" parent="1" vertex="1">
          <mxGeometry x="-440" y="360" width="28" height="30" as="geometry" />
        </mxCell>
        <mxCell id="bXySMVa1CWxdAdgDymik-70" value="" style="shape=image;html=1;verticalAlign=top;verticalLabelPosition=bottom;labelBackgroundColor=#ffffff;imageAspect=0;aspect=fixed;image=https://cdn1.iconfinder.com/data/icons/ionicons-fill-vol-2/512/logo-javascript-128.png" parent="1" vertex="1">
          <mxGeometry x="-440" y="400" width="30" height="30" as="geometry" />
        </mxCell>
        <mxCell id="bXySMVa1CWxdAdgDymik-72" value="" style="shape=image;html=1;verticalAlign=top;verticalLabelPosition=bottom;labelBackgroundColor=#ffffff;imageAspect=0;aspect=fixed;image=https://cdn1.iconfinder.com/data/icons/bootstrap-vol-3/16/filetype-html-128.png" parent="1" vertex="1">
          <mxGeometry x="-435" y="440" width="20" height="20" as="geometry" />
        </mxCell>
        <mxCell id="bXySMVa1CWxdAdgDymik-73" style="edgeStyle=orthogonalEdgeStyle;rounded=0;orthogonalLoop=1;jettySize=auto;html=1;dashed=1;" parent="1" edge="1">
          <mxGeometry relative="1" as="geometry">
            <mxPoint x="-440" y="481.15999999999997" as="sourcePoint" />
            <mxPoint x="-380" y="481.15999999999997" as="targetPoint" />
          </mxGeometry>
        </mxCell>
        <mxCell id="bXySMVa1CWxdAdgDymik-74" style="edgeStyle=orthogonalEdgeStyle;rounded=0;orthogonalLoop=1;jettySize=auto;html=1;" parent="1" edge="1">
          <mxGeometry relative="1" as="geometry">
            <mxPoint x="-440" y="513.3599999999999" as="sourcePoint" />
            <mxPoint x="-380" y="513.3599999999999" as="targetPoint" />
          </mxGeometry>
        </mxCell>
        <mxCell id="bXySMVa1CWxdAdgDymik-75" value="Entry Point" style="text;html=1;strokeColor=none;fillColor=none;align=center;verticalAlign=middle;whiteSpace=wrap;rounded=0;" parent="1" vertex="1">
          <mxGeometry x="-380" y="255" width="90" height="30" as="geometry" />
        </mxCell>
        <mxCell id="bXySMVa1CWxdAdgDymik-76" value="CSS File" style="text;html=1;strokeColor=none;fillColor=none;align=center;verticalAlign=middle;whiteSpace=wrap;rounded=0;" parent="1" vertex="1">
          <mxGeometry x="-380" y="290" width="90" height="30" as="geometry" />
        </mxCell>
        <mxCell id="bXySMVa1CWxdAdgDymik-77" value="Content Folder" style="text;html=1;strokeColor=none;fillColor=none;align=center;verticalAlign=middle;whiteSpace=wrap;rounded=0;" parent="1" vertex="1">
          <mxGeometry x="-380" y="326.25" width="90" height="30" as="geometry" />
        </mxCell>
        <mxCell id="bXySMVa1CWxdAdgDymik-78" value="JSON Data" style="text;html=1;strokeColor=none;fillColor=none;align=center;verticalAlign=middle;whiteSpace=wrap;rounded=0;" parent="1" vertex="1">
          <mxGeometry x="-380" y="360" width="90" height="30" as="geometry" />
        </mxCell>
        <mxCell id="bXySMVa1CWxdAdgDymik-79" value="JavaScript" style="text;html=1;strokeColor=none;fillColor=none;align=center;verticalAlign=middle;whiteSpace=wrap;rounded=0;" parent="1" vertex="1">
          <mxGeometry x="-380" y="400" width="90" height="30" as="geometry" />
        </mxCell>
        <mxCell id="bXySMVa1CWxdAdgDymik-80" value="Webpage" style="text;html=1;strokeColor=none;fillColor=none;align=center;verticalAlign=middle;whiteSpace=wrap;rounded=0;" parent="1" vertex="1">
          <mxGeometry x="-380" y="435" width="90" height="30" as="geometry" />
        </mxCell>
        <mxCell id="bXySMVa1CWxdAdgDymik-81" value="Flow of Runtime" style="text;html=1;strokeColor=none;fillColor=none;align=center;verticalAlign=middle;whiteSpace=wrap;rounded=0;" parent="1" vertex="1">
          <mxGeometry x="-380" y="466.5" width="90" height="30" as="geometry" />
        </mxCell>
        <mxCell id="bXySMVa1CWxdAdgDymik-82" value="Flow of Data" style="text;html=1;strokeColor=none;fillColor=none;align=center;verticalAlign=middle;whiteSpace=wrap;rounded=0;" parent="1" vertex="1">
          <mxGeometry x="-380" y="501.6" width="90" height="30" as="geometry" />
        </mxCell>
        <mxCell id="ljo64Ofl0aPz4C0_9lSt-2" value="&lt;b&gt;Site Interaction Outline&lt;/b&gt;" style="text;html=1;strokeColor=none;fillColor=none;align=center;verticalAlign=middle;whiteSpace=wrap;rounded=0;fontSize=40;" vertex="1" parent="1">
          <mxGeometry x="-200" y="280" width="526" height="30" as="geometry" />
        </mxCell>
      </root>
    </mxGraphModel>
  </diagram>
</mxfile>
